<svg xmlns="http://www.w3.org/2000/svg" height="48px" viewBox="0 0 24 24" width="48px" fill="#6750A4"><path d="M0 0h24v24H0V0z" fill="none"/><path d="M12 2C6.48 2 2 6.48 2 12s4.48 10 10 10 10-4.48 10-10S17.52 2 12 2zm0 18c-4.41 0-8-3.59-8-8s3.59-8 8-8 8 3.59 8 8-3.59 8-8 8zm-2-3.5c.83 0 1.5-.67 1.5-1.5s-.67-1.5-1.5-1.5-1.5.67-1.5 1.5.67 1.5 1.5 1.5zm4 0c.83 0 1.5-.67 1.5-1.5s-.67-1.5-1.5-1.5-1.5.67-1.5 1.5.67 1.5 1.5 1.5zM12 8c-1.04 0-1.95.4-2.65 1.02.23.44.35.95.35 1.48 0 1.93-1.57 3.5-3.5 3.5-.53 0-1.04-.12-1.48-.35C4.4 14.05 4 15.04 4 16h16c0-.96-.4-1.95-1.02-2.65-.44-.23-.95-.35-1.48-.35 0-1.93-1.57-3.5-3.5-3.5-.53 0-1.04.12-1.48.35C12.4 9.95 12 8.96 12 8z" opacity=".3"/><path d="M12 4c-4.41 0-8 3.59-8 8s3.59 8 8 8 8-3.59 8-8-3.59-8-8-8zm0 16c-3.31 0-6-2.69-6-6s2.69-6 6-6 6 2.69 6 6-2.69 6-6 6zm-3.48-8.65c.23.44.35.95.35 1.48 0 1.93-1.57 3.5-3.5 3.5-.53 0-1.04-.12-1.48-.35C4.4 14.05 4 15.04 4 16h16c0-.96-.4-1.95-1.02-2.65-.44-.23-.95-.35-1.48-.35 0-1.93-1.57-3.5-3.5-3.5-.53 0-1.04.12-1.48.35C12.4 9.95 12 8.96 12 8c-1.04 0-1.95.4-2.65 1.02.23.44.35.95.35 1.48zM10 15.5c.83 0 1.5-.67 1.5-1.5s-.67-1.5-1.5-1.5-1.5.67-1.5 1.5.67 1.5 1.5 1.5zm4 0c.83 0 1.5-.67 1.5-1.5s-.67-1.5-1.5-1.5-1.5.67-1.5 1.5.67 1.5 1.5 1.5z"/></svg>